<?xml version="1.0" encoding="UTF-8"?>
<svg id="Escudo_Indunaciones_Alternativo" data-name="Escudo Indunaciones Alternativo" xmlns="http://www.w3.org/2000/svg" viewBox="0 0 678 678">
  <defs>
    <style>
      .cls-1 {
        fill: #e4b044;
      }

      .cls-2, .cls-3 {
        fill: #bbaf7b;
      }

      .cls-4 {
        fill: #2d1214;
      }

      .cls-5 {
        fill: #4b1d22;
      }

      .cls-3 {
        font-family: Celias-Black, Celias;
        font-size: 70px;
        font-weight: 800;
      }
    </style>
  </defs>
  <g id="Circulos">
    <g>
      <circle class="cls-2" cx="339" cy="339" r="337.84"/>
      <path class="cls-4" d="M339,10.73c181.3,0,328.27,146.97,328.27,328.27s-146.97,328.27-328.27,328.27S10.73,520.3,10.73,339,157.7,10.73,339,10.73M339,0c-90.55,0-175.68,35.26-239.71,99.29C35.26,163.32,0,248.45,0,339s35.26,175.68,99.29,239.71c64.03,64.03,149.16,99.29,239.71,99.29s175.68-35.26,239.71-99.29c64.03-64.03,99.29-149.16,99.29-239.71s-35.26-175.68-99.29-239.71C514.68,35.26,429.55,0,339,0h0Z"/>
      <circle class="cls-4" cx="339" cy="339" r="317.53"/>
      <path class="cls-5" d="M339,125.77c-117.58,0-213.23,95.65-213.23,213.23s95.65,213.23,213.23,213.23,213.23-95.66,213.23-213.23-95.66-213.23-213.23-213.23Z"/>
    </g>
  </g>
  <g id="Interior">
    <g id="Futbol_Club" data-name="Futbol Club">
      <path class="cls-2" d="M160.25,509.99l20,19.08-5.01,5.25-14.22-13.57-5.33,5.59,12.53,11.96-5.01,5.25-12.54-11.96-9.7,10.17-5.78-5.51,25.06-26.27Z"/>
      <path class="cls-2" d="M175.42,551.87l11.73-17.11,6.59,4.52-11.61,16.94c-3.34,4.88-2.64,9.07,1.39,11.83,4.02,2.76,8.13,1.99,11.39-2.76l11.76-17.15,6.59,4.52-11.59,16.9c-6.22,9.07-14.36,10.03-22.4,4.51-8.04-5.52-9.88-13.38-3.84-22.19Z"/>
      <path class="cls-2" d="M227.69,568.29l-9.99-4.7,3.13-6.66,27.21,12.8-3.13,6.66-9.99-4.7-12.31,26.18-7.22-3.4,12.31-26.18Z"/>
      <path class="cls-2" d="M256.8,572.99l16.19,4.67c3.98,1.15,6.81,3.15,8.22,5.72,1.13,2.05,1.37,4.23.68,6.62l-.03.1c-1.14,3.94-3.86,5.52-6.75,6.2,3.59,2.71,5.4,5.77,4.05,10.45l-.03.1c-1.84,6.38-7.94,8.07-15.81,5.8l-16.59-4.78,10.06-34.87ZM267.24,598.17l-8.87-2.56-2.21,7.67,9.12,2.63c3.39.98,5.77.37,6.52-2.22l.03-.1c.68-2.34-.65-4.29-4.59-5.42ZM273.9,589.09c.66-2.29-.76-4.1-4-5.04l-7.57-2.18-2.13,7.37,7.07,2.04c3.39.98,5.84.5,6.59-2.09l.03-.1Z"/>
      <path class="cls-2" d="M292.34,601.44v-.1c1.06-10.26,10.02-17.84,21.16-16.7,11.14,1.14,18.28,10.26,17.23,20.52v.1c-1.06,10.26-10.02,17.84-21.16,16.7-11.14-1.14-18.28-10.26-17.23-20.52ZM322.41,604.52v-.1c.64-6.19-3.37-11.81-9.76-12.46-6.39-.65-11.35,3.95-11.98,10.13v.1c-.64,6.19,3.37,11.81,9.76,12.46,6.39.65,11.35-3.95,11.98-10.13Z"/>
      <path class="cls-2" d="M342.82,586.78l7.97-.5,1.82,28.98,18.06-1.13.45,7.24-26.03,1.63-2.27-36.23Z"/>
      <path class="cls-2" d="M401.27,597.87l-.03-.1c-3.05-9.86,1.87-20.24,12.53-23.54,6.54-2.03,11.13-1.06,15.33,1.11l-3.12,7.1c-3.43-1.6-6.61-2.24-10.08-1.17-5.85,1.81-8.55,7.97-6.71,13.92l.03.1c1.84,5.94,7.49,9.62,13.43,7.78,3.96-1.23,5.9-3.57,7.86-6.89l6.38,3.4c-2.38,4.92-5.61,8.53-12.3,10.6-10.21,3.16-20.23-2.37-23.31-12.32Z"/>
      <path class="cls-2" d="M436.61,566.59l7.16-3.53,12.84,26.04,16.23-8,3.21,6.51-23.39,11.53-16.05-32.55Z"/>
      <path class="cls-2" d="M478.59,568.21l-11.91-16.98,6.54-4.59,11.79,16.81c3.39,4.84,7.57,5.65,11.56,2.85,3.99-2.8,4.71-6.92,1.41-11.63l-11.94-17.02,6.54-4.59,11.76,16.77c6.31,9,4.36,16.96-3.62,22.56-7.98,5.6-15.99,4.57-22.12-4.18Z"/>
      <path class="cls-2" d="M501.09,525.78l11.98-11.85c2.95-2.92,6.07-4.4,9.01-4.39,2.35.01,4.36.87,6.11,2.64l.07.07c2.88,2.91,2.94,6.07,2.11,8.92,4.12-1.81,7.67-1.9,11.1,1.57l.07.07c4.67,4.72,3.17,10.87-2.66,16.63l-12.28,12.14-25.52-25.81ZM523.5,518.72c-1.68-1.7-3.95-1.34-6.35,1.03l-5.61,5.54,5.4,5.46,5.24-5.18c2.51-2.48,3.29-4.86,1.39-6.77l-.07-.07ZM528.17,528.98l-6.56,6.49,5.61,5.68,6.75-6.67c2.51-2.48,3.14-4.86,1.25-6.78l-.07-.07c-1.71-1.73-4.06-1.53-6.97,1.35Z"/>
    </g>
    <g id="_17" data-name="17">
      <path class="cls-2" d="M590.96,354.03v-21.15l-4.16,1.59-1.93-4.7,8.05-3.62h3.79v27.88h-5.75Z"/>
      <path class="cls-2" d="M601.92,354.03c3.62-8.48,6.97-15.4,11.81-21.85h-12.96v-6.03h19.25l1.12,4.12c-5.48,6.92-9.44,15.01-12.82,23.76h-6.39Z"/>
    </g>
    <g id="_20" data-name="20">
      <path class="cls-2" d="M53.43,354.21l-2.31-5.55c3.59-2.44,7.31-5.2,10.7-7.96,1.85-1.5,4.33-3.55,4.33-5.99s-2.28-2.84-3.89-2.84c-2.42,0-4.6,1.5-6.04,3.78l-4.29-4.18c1.91-4.02,6.44-5.99,10.4-5.99,4.63,0,9.63,2.25,9.63,8.71,0,4.89-3.09,8.12-6.24,10.8-1.24,1.06-2.95,2.36-4.29,3.23h11.98v5.99h-19.96Z"/>
      <path class="cls-2" d="M75.91,340.42c0-7.76,4.03-14.89,12.18-14.89,8.56,0,12.11,7.13,12.11,14.7s-4.13,14.66-12.11,14.66c-8.59,0-12.18-6.7-12.18-14.46ZM94.47,340.22c0-4.02-1.88-8.39-6.38-8.39s-6.51,4.37-6.51,8.59,1.81,8.16,6.51,8.16,6.38-4.33,6.38-8.35Z"/>
    </g>
    <g id="Escudo">
      <g>
        <g>
          <g id="Fondo">
            <g id="Capa_11" data-name="Capa 11">
              <path class="cls-2" d="M335.39,543.56c-46.45-17.35-80.35-36.31-103.68-59.67-26.22-26.24-40.33-57.99-43.16-97.07l-.02-.26,3.74-220.52,6.67-.04c61.28-.41,103.18-14.93,136.1-29.09l2.88-1.23,2.87,1.25c33.83,14.72,71.92,29.09,132.25,29.09,1.33,0,2.66,0,4-.02l6.8-.07,3.43,220.65-.02.27c-2.67,35.22-14.72,64.34-36.85,89.04-24.18,27-59.21,49.14-109.99,67.68l-2.52.92-2.51-.94h0Z"/>
            </g>
          </g>
          <g id="Capa_14" data-name="Capa 14">
            <path class="cls-4" d="M201.61,175.51c57.43-.38,99.09-13.11,136.29-29.11,36.18,15.74,74.86,29.74,136.59,29.11l3.27,210.02c-4.74,62.4-39.15,111.63-139.86,148.41-82.03-30.64-134.33-71.9-139.86-148.41l3.57-210.02h0Z"/>
          </g>
          <g id="Bandera_bordo" data-name="Bandera bordo">
            <path class="cls-5" d="M451.46,283.26c-75.08-17.13-150.24-18.58-226.28-.95l-1.02,108.06c1.02,54.31,42.88,93.39,113.74,119.56,74.65-26.43,114.05-65.94,113.74-120.11l-.18-106.56h0ZM298.79,272.07l.03,220.41-.03-220.41ZM378.17,272.08l-.18,220.15"/>
          </g>
          <g id="Capa_10" data-name="Capa 10">
            <path class="cls-2" d="M451,261.48c-76.07-17.55-151.42-18.6-226.2-1.39v-8.65c74.65-15.4,149.98-14.95,226.2,1.07"/>
          </g>
          <g id="Bandera_amarillo" data-name="Bandera amarillo">
            <path class="cls-1" d="M298.22,271.12v221.37c12.41,6.68,26,12.47,39.68,17.45,14.67-5.21,27.61-10.42,39.51-16.91l.18-221.43c-26.79-2.32-53.25-2.45-79.37-.48h0Z"/>
          </g>
        </g>
        <g>
          <path class="cls-2" d="M432.98,209.39c-3.87,1.45-7.5,2.76-11.08,4.18-1.74.69-3.47.97-5.34.97-38.54-.03-77.08-.02-115.62-.05-1.09,0-1.48.31-1.77,1.36-1.59,5.8-5.21,9.95-10.55,12.62-.14.07-.29.13-.44.18-.06.02-.12.01-.31.02-.07-1.43-.13-2.86-.21-4.29-.19-3.42-.57-6.81-1.53-10.11-.48-1.65-.49-1.65-2.17-1.65-10.57,0-21.14,0-31.71,0q-1.36,0-1.23,1.39c.04.46.07.91-.06,1.43-2.67-3.23-5.35-6.46-8.13-9.82,2.48-.99,4.87-1.94,7.43-2.96.13,1.67.25,3.22.36,4.59.35-.11.69-.31,1.04-.32,2.15-.03,4.3-.02,6.46-.02,8.23,0,16.45-.01,24.68.02.92,0,1.23-.23,1.3-1.19.37-4.89.82-9.77,1.25-14.65.02-.18.05-.36.09-.62.28.13.51.21.72.34,5.19,3.12,9.41,7.14,11.94,12.74.23.51.54.56,1.03.56,39.62-.01,79.23-.01,118.85,0,.83,0,1.7.17,2.48.46,3.83,1.41,7.63,2.88,11.44,4.33.29.11.57.24,1.09.47ZM299.78,208.62q-.2,2.35,1.88,2.35c31.64,0,63.27-.05,94.91.04,8.08.02,16.11-.6,24.16-1.04.15,0,.3-.09.45-.13-1.12-.23-2.22-.3-3.32-.37-4.42-.28-8.83-.8-13.25-.81-34.55-.07-69.1-.04-103.64-.03-.38,0-.75,0-1.18,0Z"/>
          <path class="cls-2" d="M255.21,204.58c.39-3.81,5.74-7.87,10.66-8.24,6.29-.48,12.19,3.03,13.55,8.22-1.51,0-2.97.02-4.44-.02-.21,0-.44-.32-.61-.54-3.52-4.51-10.66-4.51-14.25-.02-.25.31-.76.55-1.16.58-1.23.07-2.46.03-3.76.03Z"/>
        </g>
      </g>
    </g>
    <g id="Indunaciones">
      <text class="cls-3" transform="translate(117.29 239.06) rotate(-63.01)"><tspan x="0" y="0">I</tspan></text>
      <text class="cls-3" transform="translate(126.1 219.12) rotate(-54.38)"><tspan x="0" y="0">N</tspan></text>
      <text class="cls-3" transform="translate(155.47 177.47) rotate(-42.05)"><tspan x="0" y="0">D</tspan></text>
      <text class="cls-3" transform="translate(195.93 140.81) rotate(-29.42)"><tspan x="0" y="0">U</tspan></text>
      <text class="cls-3" transform="translate(242.27 114.6) rotate(-17.12)"><tspan x="0" y="0">N</tspan></text>
      <text class="cls-3" transform="translate(290.76 99.1) rotate(-4.37)"><tspan x="0" y="0">A</tspan></text>
      <text class="cls-3" transform="translate(344.38 94.44) rotate(8.07)"><tspan x="0" y="0">C</tspan></text>
      <text class="cls-3" transform="translate(400.9 103.82) rotate(17.41)"><tspan x="0" y="0">I</tspan></text>
      <text class="cls-3" transform="translate(422.06 108.63) rotate(27.1)"><tspan x="0" y="0">O</tspan></text>
      <text class="cls-3" transform="translate(475.11 136.12) rotate(40.07)"><tspan x="0" y="0">N</tspan></text>
      <text class="cls-3" transform="translate(514.04 169.31) rotate(50.86)"><tspan x="0" y="0">E</tspan></text>
      <text class="cls-3" transform="translate(540.3 201.09) rotate(61.03)"><tspan x="0" y="0">S</tspan></text>
    </g>
  </g>
</svg>